<?xml version="1.0" encoding="UTF-8" standalone="no"?>
<!-- Created with Inkscape (http://www.inkscape.org/) -->

<svg
   xmlns:dc="http://purl.org/dc/elements/1.1/"
   xmlns:cc="http://creativecommons.org/ns#"
   xmlns:rdf="http://www.w3.org/1999/02/22-rdf-syntax-ns#"
   xmlns:svg="http://www.w3.org/2000/svg"
   xmlns="http://www.w3.org/2000/svg"
   xmlns:sodipodi="http://sodipodi.sourceforge.net/DTD/sodipodi-0.dtd"
   xmlns:inkscape="http://www.inkscape.org/namespaces/inkscape"
   version="1.1"
   id="svg3802"
   width="150"
   height="150"
   viewBox="0 0 150 150"
   sodipodi:docname="logo-texto-marca.svg"
   inkscape:version="0.92.4 (unknown)"
   inkscape:export-filename="/home/pcost8300/Imágenes/Treats Factory Images/logo.svg.png"
   inkscape:export-xdpi="640"
   inkscape:export-ydpi="640">
  <metadata
     id="metadata3808">
    <rdf:RDF>
      <cc:Work
         rdf:about="">
        <dc:format>image/svg+xml</dc:format>
        <dc:type
           rdf:resource="http://purl.org/dc/dcmitype/StillImage" />
        <dc:title />
      </cc:Work>
    </rdf:RDF>
  </metadata>
  <defs
     id="defs3806">
    <clipPath
       clipPathUnits="userSpaceOnUse"
       id="clipPath31">
      <rect
         id="rect33"
         width="13"
         height="16.741884"
         x="25.337418"
         y="6.2581158"
         style="stroke-width:1.0725559" />
    </clipPath>
  </defs>
  <sodipodi:namedview
     pagecolor="#ffffff"
     bordercolor="#666666"
     borderopacity="1"
     objecttolerance="10"
     gridtolerance="10"
     guidetolerance="10"
     inkscape:pageopacity="0"
     inkscape:pageshadow="2"
     inkscape:window-width="1366"
     inkscape:window-height="704"
     id="namedview3804"
     showgrid="false"
     inkscape:zoom="2"
     inkscape:cx="94.532768"
     inkscape:cy="46.815097"
     inkscape:window-x="0"
     inkscape:window-y="27"
     inkscape:window-maximized="1"
     inkscape:current-layer="g4612"
     showguides="false"
     inkscape:guide-bbox="true">
    <inkscape:grid
       type="xygrid"
       id="grid3849" />
    <sodipodi:guide
       position="28.252427,85"
       orientation="0,1"
       id="guide3851"
       inkscape:locked="false" />
    <sodipodi:guide
       position="48,178"
       orientation="1,0"
       id="guide3861"
       inkscape:locked="false" />
    <sodipodi:guide
       position="105,182"
       orientation="1,0"
       id="guide3863"
       inkscape:locked="false" />
    <sodipodi:guide
       position="75,210"
       orientation="1,0"
       id="guide858"
       inkscape:locked="false" />
    <sodipodi:guide
       position="72.809901,203.16062"
       orientation="0,1"
       id="guide862"
       inkscape:locked="false" />
    <sodipodi:guide
       position="82,202"
       orientation="1,0"
       id="guide864"
       inkscape:locked="false" />
    <sodipodi:guide
       position="71,201.375"
       orientation="1,0"
       id="guide866"
       inkscape:locked="false" />
  </sodipodi:namedview>
  <g
     id="g4612"
     transform="translate(-5.069361,3.4430439)">
    <g
       id="g872"
       transform="translate(0,6.5)">
      <g
         aria-label="F"
         transform="scale(1.0345656,0.96658926)"
         style="font-style:normal;font-weight:normal;font-size:20.98368263px;line-height:1.25;font-family:sans-serif;letter-spacing:0px;word-spacing:0px;fill:#000000;fill-opacity:1;stroke:none;stroke-width:0.52459216"
         id="text3820">
        <path
           d="m 113.03801,41.880206 v 2.141401 h -5.29715 v 3.852473 h 4.43649 v 2.141401 h -4.43649 v 5.471332 h -2.70493 V 41.880206 Z"
           style="font-style:normal;font-variant:normal;font-weight:bold;font-stretch:normal;font-family:carlito;-inkscape-font-specification:'carlito Bold';stroke-width:0.52459216"
           id="path2913" />
      </g>
      <g
         aria-label="T"
         transform="scale(1.0784727,0.9272372)"
         style="font-style:normal;font-weight:normal;font-size:21.87356377px;line-height:1.25;font-family:sans-serif;letter-spacing:0px;word-spacing:0px;fill:#000000;fill-opacity:1;stroke:none;stroke-width:0.546839"
         id="text3824">
        <path
           d="m 47.726909,43.657826 v 2.285617 H 43.903308 V 57.841465 H 41.10503 V 45.943443 h -3.823602 v -2.285617 z"
           style="font-style:normal;font-variant:normal;font-weight:bold;font-stretch:normal;font-family:carlito;-inkscape-font-specification:'carlito Bold';stroke-width:0.546839"
           id="path2916" />
      </g>
      <g
         id="g3859"
         transform="translate(4.587427,-28.387899)">
        <g
           id="g3854">
          <path
             style="fill:none;stroke:#000000;stroke-width:1px;stroke-linecap:butt;stroke-linejoin:miter;stroke-opacity:1"
             d="m 30.481108,31.061893 90.001652,88.765927 -0.30893,-0.10297"
             id="path3845"
             inkscape:connector-curvature="0" />
        </g>
        <path
           style="fill:none;stroke:#000000;stroke-width:1px;stroke-linecap:butt;stroke-linejoin:miter;stroke-opacity:1"
           d="m 119.8649,30.44403 -88.765929,90.00165 0.10297,-0.30893"
           id="path3847"
           inkscape:connector-curvature="0" />
      </g>
      <g
         id="g48"
         transform="translate(72.995984,61.269971)"
         style="fill:none;stroke:#000000;stroke-width:4;stroke-linecap:round;stroke-linejoin:round;stroke-miterlimit:4;stroke-dasharray:none;stroke-opacity:1">
        <path
           transform="translate(-18.346013,1.7418842)"
           clip-path="url(#clipPath31)"
           sodipodi:nodetypes="csssc"
           inkscape:connector-curvature="0"
           id="path3873"
           d="m 19.601942,21 c 5.804603,-15.177128 15,-13.9999997 14.926103,-9.335945 -0.0777,4.904133 -5.508458,9.262412 -11.801278,7.648999 C 20.607663,18.769738 14.446813,15.350069 15.997722,11.737131 17.601942,8.0000003 25.601942,6.0000003 30.601942,21"
           style="fill:none;stroke:#000000;stroke-width:4;stroke-linecap:round;stroke-linejoin:round;stroke-miterlimit:4;stroke-dasharray:none;stroke-opacity:1" />
        <path
           transform="matrix(-1,0,0,1,32.492792,1.7417496)"
           style="fill:none;stroke:#000000;stroke-width:4;stroke-linecap:round;stroke-linejoin:round;stroke-miterlimit:4;stroke-dasharray:none;stroke-opacity:1"
           d="m 19.601942,21 c 1.296264,-3.389305 2.761629,-5.963018 4.255099,-7.864441 5.194211,-6.6130482 10.728399,-5.0939978 10.671004,-1.471504 -0.0777,4.904133 -5.508458,9.262412 -11.801278,7.648999 -2.119104,-0.543316 -8.279953,-3.962985 -6.729045,-7.575923 0.697161,-1.62408 2.602224,-2.9200867 4.944037,-2.6353305 1.086286,0.1320885 2.266548,0.6043115 3.463816,1.5417005 2.160898,1.691852 4.377196,4.898985 6.196367,10.356499"
           id="path35"
           inkscape:connector-curvature="0"
           sodipodi:nodetypes="cssssssc"
           clip-path="url(#clipPath31)" />
      </g>
      <g
         id="g888"
         transform="translate(3.6568129,73.55105)">
        <path
           style="fill:#000000;stroke:#000000;stroke-width:1.08148038;stroke-linecap:round;stroke-linejoin:round;stroke-miterlimit:0;stroke-dasharray:none;stroke-opacity:1"
           d="m 71.574196,-52.644558 h 9.843519 v 3.093519 h -9.843519 z"
           id="rect860" />
        <g
           id="g880">
          <path
             style="fill:#000000;fill-opacity:1;stroke:#000000;stroke-width:1.7010864;stroke-linecap:round;stroke-linejoin:round;stroke-miterlimit:0;stroke-dasharray:none;stroke-opacity:1"
             d="m 82.594946,-62.645256 a 6.0397091,6.2369566 0 0 1 -6.039709,6.236957 6.0397091,6.2369566 0 0 1 -6.039709,-6.236957 6.0397091,6.2369566 0 0 1 6.039709,-6.236957 6.0397091,6.2369566 0 0 1 6.039709,6.236957 z"
             id="path868" />
          <path
             style="fill:#000000;fill-opacity:1;stroke:#000000;stroke-width:1.51549447;stroke-linecap:round;stroke-linejoin:round;stroke-miterlimit:0;stroke-dasharray:none;stroke-opacity:1"
             d="m 77.143675,-59.773403 a 5.2831254,3.6656508 0 0 1 -5.283125,3.665651 5.2831254,3.6656508 0 0 1 -5.283125,-3.665651 5.2831254,3.6656508 0 0 1 5.283125,-3.665651 5.2831254,3.6656508 0 0 1 5.283125,3.665651 z"
             id="path870" />
          <path
             style="fill:#000000;fill-opacity:1;stroke:#000000;stroke-width:1.51549447;stroke-linecap:round;stroke-linejoin:round;stroke-miterlimit:0;stroke-dasharray:none;stroke-opacity:1"
             d="m 86.247672,-59.817596 a 5.2831254,3.6656508 0 0 1 -5.283126,3.66565 5.2831254,3.6656508 0 0 1 -5.283125,-3.66565 5.2831254,3.6656508 0 0 1 5.283125,-3.665651 5.2831254,3.6656508 0 0 1 5.283126,3.665651 z"
             id="ellipse872" />
          <path
             style="fill:#000000;fill-opacity:1;stroke:#000000;stroke-width:1.31363142;stroke-linecap:round;stroke-linejoin:round;stroke-miterlimit:0;stroke-dasharray:none;stroke-opacity:1"
             d="m 71.670578,-58.520378 h 9.671883 v 4.019081 h -9.671883 z"
             id="rect874" />
        </g>
      </g>
    </g>
    <g
       aria-label="The Treats Factory"
       transform="scale(1.0110927,0.989029)"
       style="font-style:normal;font-weight:normal;font-size:15.59539509px;line-height:1.25;font-family:sans-serif;letter-spacing:0px;word-spacing:0px;fill:#000000;fill-opacity:1;stroke:none;stroke-width:0.38988486"
       id="text852">
      <path
         d="m 73.385655,103.54683 q 0.249526,0 0.40548,0.15595 0.155954,0.15595 0.155954,0.40548 0,0.23393 -0.155954,0.38989 -0.155954,0.15595 -0.40548,0.15595 h -3.711704 v 10.46451 q 0,0.24953 -0.17155,0.43667 -0.171549,0.17155 -0.436671,0.17155 -0.249526,0 -0.436671,-0.17155 -0.171549,-0.18714 -0.171549,-0.43667 V 104.6541 h -3.696109 q -0.249526,0 -0.40548,-0.15595 -0.155954,-0.15596 -0.155954,-0.38989 0,-0.24953 0.155954,-0.40548 0.155954,-0.15595 0.40548,-0.15595 z"
         style="font-style:normal;font-variant:normal;font-weight:normal;font-stretch:normal;font-family:Comfortaa;-inkscape-font-specification:Comfortaa;text-align:center;text-anchor:middle;stroke-width:0.38988486"
         id="path3674" />
      <path
         d="m 79.612847,107.10258 q 1.107274,0 1.980616,0.46786 0.888937,0.46786 1.38799,1.37239 0.499052,0.88894 0.499052,2.13657 v 4.0548 q 0,0.24953 -0.171549,0.42108 -0.171549,0.17155 -0.421076,0.17155 -0.265121,0 -0.436671,-0.17155 -0.171549,-0.17155 -0.171549,-0.42108 v -4.0548 q 0,-1.38799 -0.77977,-2.10538 -0.764174,-0.73298 -2.011806,-0.73298 -0.764174,0 -1.38799,0.29631 -0.60822,0.29631 -0.966914,0.82656 -0.358694,0.51465 -0.358694,1.15406 v 4.61623 q 0,0.26513 -0.17155,0.43668 -0.155954,0.15595 -0.421075,0.15595 -0.265122,0 -0.436672,-0.15595 -0.171549,-0.17155 -0.171549,-0.43668 v -10.97915 q 0,-0.26513 0.171549,-0.43667 0.17155,-0.17155 0.436672,-0.17155 0.265121,0 0.421075,0.17155 0.17155,0.17154 0.17155,0.43667 v 4.17956 q 0.514648,-0.57703 1.247631,-0.90453 0.732984,-0.3275 1.59073,-0.3275 z"
         style="font-style:normal;font-variant:normal;font-weight:normal;font-stretch:normal;font-family:Comfortaa;-inkscape-font-specification:Comfortaa;text-align:center;text-anchor:middle;stroke-width:0.38988486"
         id="path3676" />
      <path
         d="m 89.776902,107.11817 q 1.15406,0 2.042997,0.54584 0.888938,0.53024 1.372395,1.48156 0.499053,0.95132 0.499053,2.16776 0,0.24953 -0.155954,0.40548 -0.155954,0.14036 -0.405481,0.14036 h -6.300539 q 0.124763,1.27882 0.998105,2.07419 0.873342,0.79536 2.183355,0.79536 0.561435,0 1.122869,-0.18714 0.577029,-0.20274 0.920128,-0.49905 0.20274,-0.15596 0.421076,-0.15596 0.171549,0 0.343099,0.12477 0.20274,0.18714 0.20274,0.42107 0,0.20274 -0.17155,0.3587 -0.514648,0.43667 -1.310013,0.73298 -0.795365,0.28072 -1.528349,0.28072 -1.247631,0 -2.230141,-0.54584 -0.98251,-0.56144 -1.543944,-1.54395 -0.545839,-0.9981 -0.545839,-2.24573 0,-1.26323 0.514648,-2.24574 0.530243,-0.99811 1.450372,-1.54394 0.935723,-0.56144 2.120973,-0.56144 z m 0,1.07608 q -1.18525,0 -1.965019,0.73299 -0.77977,0.73298 -0.951319,1.93383 h 5.707914 q -0.124763,-1.20085 -0.873342,-1.93383 -0.748579,-0.73299 -1.918234,-0.73299 z"
         style="font-style:normal;font-variant:normal;font-weight:normal;font-stretch:normal;font-family:Comfortaa;-inkscape-font-specification:Comfortaa;text-align:center;text-anchor:middle;stroke-width:0.38988486"
         id="path3678" />
      <path
         d="m 30.665847,123.51468 q 0.249526,0 0.40548,0.15596 0.155954,0.15595 0.155954,0.40548 0,0.23393 -0.155954,0.38988 -0.155954,0.15596 -0.40548,0.15596 h -3.711704 v 10.46451 q 0,0.24952 -0.17155,0.43667 -0.171549,0.17155 -0.436671,0.17155 -0.249526,0 -0.436671,-0.17155 -0.171549,-0.18715 -0.171549,-0.43667 v -10.46451 h -3.696109 q -0.249526,0 -0.40548,-0.15596 -0.155954,-0.15595 -0.155954,-0.38988 0,-0.24953 0.155954,-0.40548 0.155954,-0.15596 0.40548,-0.15596 z"
         style="font-style:normal;font-variant:normal;font-weight:normal;font-stretch:normal;font-family:Comfortaa;-inkscape-font-specification:Comfortaa;text-align:center;text-anchor:middle;stroke-width:0.38988486"
         id="path3680" />
      <path
         d="m 34.69555,127.07043 q 0.655007,0 1.029296,0.17155 0.389885,0.17155 0.389885,0.48346 0,0.0936 -0.01559,0.14036 -0.06238,0.21834 -0.20274,0.29631 -0.124763,0.078 -0.358694,0.078 -0.140359,0 -0.483458,-0.0312 -0.124763,-0.0156 -0.374289,-0.0156 -1.169655,0 -1.918234,0.62382 -0.732983,0.62382 -0.732983,1.62192 v 4.66302 q 0,0.28072 -0.155954,0.43667 -0.155954,0.15596 -0.436671,0.15596 -0.280717,0 -0.436671,-0.15596 -0.155954,-0.15595 -0.155954,-0.43667 v -7.34543 q 0,-0.28071 0.155954,-0.43667 0.155954,-0.15595 0.436671,-0.15595 0.280717,0 0.436671,0.15595 0.155954,0.15596 0.155954,0.43667 v 0.6862 q 0.452266,-0.65501 1.154059,-1.0137 0.701793,-0.3587 1.512753,-0.3587 z"
         style="font-style:normal;font-variant:normal;font-weight:normal;font-stretch:normal;font-family:Comfortaa;-inkscape-font-specification:Comfortaa;text-align:center;text-anchor:middle;stroke-width:0.38988486"
         id="path3682" />
      <path
         d="m 40.812844,127.08603 q 1.15406,0 2.042997,0.54584 0.888938,0.53024 1.372395,1.48156 0.499053,0.95132 0.499053,2.16776 0,0.24953 -0.155954,0.40548 -0.155954,0.14036 -0.405481,0.14036 h -6.300539 q 0.124763,1.27882 0.998105,2.07419 0.873342,0.79536 2.183355,0.79536 0.561434,0 1.122869,-0.18714 0.577029,-0.20274 0.920128,-0.49905 0.20274,-0.15596 0.421076,-0.15596 0.171549,0 0.343098,0.12476 0.202741,0.18715 0.202741,0.42108 0,0.20274 -0.17155,0.35869 -0.514648,0.43668 -1.310013,0.73299 -0.795365,0.28072 -1.528349,0.28072 -1.247631,0 -2.230141,-0.54584 -0.98251,-0.56144 -1.543944,-1.54395 -0.545839,-0.9981 -0.545839,-2.24573 0,-1.26323 0.514648,-2.24574 0.530243,-0.99811 1.450372,-1.54395 0.935723,-0.56143 2.120973,-0.56143 z m 0,1.07608 q -1.18525,0 -1.965019,0.73299 -0.77977,0.73298 -0.95132,1.93383 h 5.707915 q -0.124763,-1.20085 -0.873342,-1.93383 -0.748579,-0.73299 -1.918234,-0.73299 z"
         style="font-style:normal;font-variant:normal;font-weight:normal;font-stretch:normal;font-family:Comfortaa;-inkscape-font-specification:Comfortaa;text-align:center;text-anchor:middle;stroke-width:0.38988486"
         id="path3684" />
      <path
         d="m 50.322137,127.08603 q 1.216441,0 2.198951,0.57703 0.998105,0.56143 1.559539,1.55954 0.57703,0.9981 0.57703,2.21455 v 3.66491 q 0,0.24953 -0.171549,0.42108 -0.17155,0.17155 -0.436671,0.17155 -0.265122,0 -0.436671,-0.15596 -0.17155,-0.17154 -0.17155,-0.43667 v -0.93572 q -0.545839,0.74858 -1.38799,1.18525 -0.842151,0.42108 -1.855852,0.42108 -1.18525,0 -2.152164,-0.56144 -0.95132,-0.57703 -1.512754,-1.55954 -0.545839,-0.9981 -0.545839,-2.21454 0,-1.21645 0.561435,-2.21455 0.577029,-0.99811 1.559539,-1.55954 0.998105,-0.57703 2.214546,-0.57703 z m 0,7.59496 q 0.888938,0 1.606326,-0.42108 0.717388,-0.42107 1.122868,-1.15406 0.421076,-0.74858 0.421076,-1.6687 0,-0.92013 -0.421076,-1.65312 -0.40548,-0.74858 -1.122868,-1.16965 -0.717388,-0.43667 -1.606326,-0.43667 -0.888937,0 -1.621921,0.43667 -0.717388,0.42107 -1.138464,1.16965 -0.40548,0.73299 -0.40548,1.65312 0,0.92012 0.40548,1.6687 0.421076,0.73299 1.138464,1.15406 0.732984,0.42108 1.621921,0.42108 z"
         style="font-style:normal;font-variant:normal;font-weight:normal;font-stretch:normal;font-family:Comfortaa;-inkscape-font-specification:Comfortaa;text-align:center;text-anchor:middle;stroke-width:0.38988486"
         id="path3686" />
      <path
         d="m 60.766908,134.49384 q 0.249527,0 0.405481,0.17155 0.155954,0.17155 0.155954,0.43667 0,0.24953 -0.187145,0.42108 -0.187145,0.17155 -0.467862,0.17155 h -0.327503 q -0.826556,0 -1.481563,-0.38989 -0.655006,-0.40548 -1.029296,-1.07608 -0.358694,-0.6862 -0.358694,-1.54394 v -4.16397 h -1.013701 q -0.249526,0 -0.40548,-0.14036 -0.140358,-0.15596 -0.140358,-0.37429 0,-0.23393 0.140358,-0.37429 0.155954,-0.15595 0.40548,-0.15595 h 1.013701 v -2.41729 q 0,-0.26512 0.155954,-0.43667 0.171549,-0.17155 0.436671,-0.17155 0.265122,0 0.436671,0.17155 0.171549,0.17155 0.171549,0.43667 v 2.41729 h 1.76228 q 0.249526,0 0.389885,0.15595 0.155954,0.14036 0.155954,0.37429 0,0.21833 -0.155954,0.37429 -0.140359,0.14036 -0.389885,0.14036 h -1.76228 v 4.16397 q 0,0.79536 0.467862,1.31001 0.467862,0.49905 1.200846,0.49905 z"
         style="font-style:normal;font-variant:normal;font-weight:normal;font-stretch:normal;font-family:Comfortaa;-inkscape-font-specification:Comfortaa;text-align:center;text-anchor:middle;stroke-width:0.38988486"
         id="path3688" />
      <path
         d="m 66.26185,135.77267 q -0.966914,0 -1.855852,-0.32751 -0.888937,-0.3275 -1.434776,-0.92013 -0.155954,-0.18714 -0.155954,-0.35869 0,-0.26512 0.249526,-0.46786 0.187145,-0.14036 0.389885,-0.14036 0.265122,0 0.452267,0.21833 0.374289,0.43668 0.982509,0.67061 0.623816,0.23393 1.372395,0.23393 1.091678,0 1.637517,-0.37429 0.545839,-0.37429 0.561434,-0.98251 0,-0.56144 -0.545839,-0.93573 -0.545839,-0.37428 -1.731089,-0.56143 -1.528348,-0.24953 -2.292523,-0.85775 -0.748579,-0.62381 -0.748579,-1.49715 0,-1.13847 0.873342,-1.76228 0.888938,-0.62382 2.214546,-0.62382 1.029297,0 1.793471,0.35869 0.764174,0.3431 1.232036,0.96692 0.124763,0.20274 0.124763,0.35869 0,0.26512 -0.249526,0.42108 -0.109168,0.078 -0.296313,0.078 -0.327503,0 -0.545838,-0.23394 -0.764175,-0.87334 -2.089783,-0.87334 -0.857747,0 -1.372395,0.3587 -0.514648,0.3431 -0.514648,0.87334 0,0.56143 0.483457,0.90453 0.483457,0.32751 1.715494,0.53025 1.668707,0.28071 2.386095,0.92012 0.717388,0.62382 0.717388,1.55954 0,0.71739 -0.436671,1.27883 -0.421076,0.56143 -1.18525,0.87334 -0.764174,0.31191 -1.731089,0.31191 z"
         style="font-style:normal;font-variant:normal;font-weight:normal;font-stretch:normal;font-family:Comfortaa;-inkscape-font-specification:Comfortaa;text-align:center;text-anchor:middle;stroke-width:0.38988486"
         id="path3690" />
      <path
         d="m 76.056243,135.69469 q -0.249527,0 -0.436671,-0.17155 -0.17155,-0.18715 -0.17155,-0.43667 v -10.96356 q 0,-0.26513 0.17155,-0.43668 0.187144,-0.17155 0.436671,-0.17155 h 7.31424 q 0.265122,0 0.436671,0.17155 0.171549,0.17155 0.171549,0.42108 0,0.24953 -0.171549,0.42108 -0.171549,0.15595 -0.436671,0.15595 h -6.70602 v 4.30433 h 4.881359 q 0.265121,0 0.436671,0.17155 0.171549,0.15595 0.171549,0.42107 0,0.24953 -0.171549,0.42108 -0.17155,0.17155 -0.436671,0.17155 h -4.881359 v 4.91255 q 0,0.24952 -0.171549,0.43667 -0.17155,0.17155 -0.436671,0.17155 z"
         style="font-style:normal;font-variant:normal;font-weight:normal;font-stretch:normal;font-family:Comfortaa;-inkscape-font-specification:Comfortaa;text-align:center;text-anchor:middle;stroke-width:0.38988486"
         id="path3692" />
      <path
         d="m 89.88936,127.08603 q 1.216441,0 2.198951,0.57703 0.998105,0.56143 1.559539,1.55954 0.57703,0.9981 0.57703,2.21455 v 3.66491 q 0,0.24953 -0.17155,0.42108 -0.171549,0.17155 -0.436671,0.17155 -0.265121,0 -0.436671,-0.15596 -0.171549,-0.17154 -0.171549,-0.43667 v -0.93572 q -0.545839,0.74858 -1.38799,1.18525 -0.842152,0.42108 -1.855852,0.42108 -1.18525,0 -2.152165,-0.56144 -0.951319,-0.57703 -1.512753,-1.55954 -0.545839,-0.9981 -0.545839,-2.21454 0,-1.21645 0.561434,-2.21455 0.57703,-0.99811 1.55954,-1.55954 0.998105,-0.57703 2.214546,-0.57703 z m 0,7.59496 q 0.888937,0 1.606326,-0.42108 0.717388,-0.42107 1.122868,-1.15406 0.421076,-0.74858 0.421076,-1.6687 0,-0.92013 -0.421076,-1.65312 -0.40548,-0.74858 -1.122868,-1.16965 -0.717389,-0.43667 -1.606326,-0.43667 -0.888938,0 -1.621921,0.43667 -0.717388,0.42107 -1.138464,1.16965 -0.40548,0.73299 -0.40548,1.65312 0,0.92012 0.40548,1.6687 0.421076,0.73299 1.138464,1.15406 0.732983,0.42108 1.621921,0.42108 z"
         style="font-style:normal;font-variant:normal;font-weight:normal;font-stretch:normal;font-family:Comfortaa;-inkscape-font-specification:Comfortaa;text-align:center;text-anchor:middle;stroke-width:0.38988486"
         id="path3694" />
      <path
         d="m 100.38092,135.77267 q -1.216444,0 -2.183358,-0.56144 -0.966915,-0.57703 -1.528349,-1.55954 -0.545839,-0.9981 -0.545839,-2.21454 0,-1.24764 0.530244,-2.23015 0.530243,-0.9981 1.465967,-1.55954 0.935724,-0.56143 2.105375,-0.56143 1.94943,0 3.16587,1.49716 0.12476,0.14036 0.12476,0.3275 0,0.24953 -0.26512,0.43667 -0.14036,0.0936 -0.29631,0.0936 -0.23393,0 -0.45227,-0.23394 -0.46786,-0.51464 -1.0293,-0.76417 -0.56143,-0.26512 -1.24763,-0.26512 -0.857744,0 -1.528346,0.42107 -0.670602,0.40548 -1.044891,1.15406 -0.358694,0.74858 -0.358694,1.68431 0,0.92012 0.389885,1.6687 0.389885,0.73299 1.091677,1.15406 0.701793,0.42108 1.606329,0.42108 1.24763,0 2.0118,-0.6706 0.20274,-0.17155 0.42108,-0.17155 0.18714,0 0.3431,0.12476 0.21833,0.18714 0.21833,0.42108 0,0.20274 -0.15595,0.34309 -1.12287,1.0449 -2.83836,1.0449 z"
         style="font-style:normal;font-variant:normal;font-weight:normal;font-stretch:normal;font-family:Comfortaa;-inkscape-font-specification:Comfortaa;text-align:center;text-anchor:middle;stroke-width:0.38988486"
         id="path3696" />
      <path
         d="m 109.62436,134.49384 q 0.24953,0 0.40548,0.17155 0.15595,0.17155 0.15595,0.43667 0,0.24953 -0.18714,0.42108 -0.18714,0.17155 -0.46786,0.17155 h -0.3275 q -0.82656,0 -1.48157,-0.38989 -0.655,-0.40548 -1.02929,-1.07608 -0.3587,-0.6862 -0.3587,-1.54394 v -4.16397 h -1.0137 q -0.24952,0 -0.40548,-0.14036 -0.14036,-0.15596 -0.14036,-0.37429 0,-0.23393 0.14036,-0.37429 0.15596,-0.15595 0.40548,-0.15595 h 1.0137 v -2.41729 q 0,-0.26512 0.15596,-0.43667 0.17155,-0.17155 0.43667,-0.17155 0.26512,0 0.43667,0.17155 0.17155,0.17155 0.17155,0.43667 v 2.41729 h 1.76228 q 0.24952,0 0.38988,0.15595 0.15596,0.14036 0.15596,0.37429 0,0.21833 -0.15596,0.37429 -0.14036,0.14036 -0.38988,0.14036 h -1.76228 v 4.16397 q 0,0.79536 0.46786,1.31001 0.46786,0.49905 1.20085,0.49905 z"
         style="font-style:normal;font-variant:normal;font-weight:normal;font-stretch:normal;font-family:Comfortaa;-inkscape-font-specification:Comfortaa;text-align:center;text-anchor:middle;stroke-width:0.38988486"
         id="path3698" />
      <path
         d="m 116.02383,135.77267 q -1.23204,0 -2.23014,-0.56144 -0.98251,-0.56143 -1.54395,-1.54394 -0.56143,-0.99811 -0.56143,-2.23014 0,-1.23204 0.56143,-2.23015 0.56144,-0.9981 1.54395,-1.55954 0.9981,-0.56143 2.23014,-0.56143 1.23203,0 2.21454,0.56143 0.98251,0.56144 1.54395,1.55954 0.57703,0.99811 0.57703,2.23015 0,1.23203 -0.56144,2.23014 -0.56143,0.98251 -1.55954,1.54394 -0.98251,0.56144 -2.21454,0.56144 z m 0,-1.09168 q 0.90453,0 1.62192,-0.42108 0.71739,-0.42107 1.12287,-1.15406 0.40548,-0.74858 0.40548,-1.6687 0,-0.93573 -0.40548,-1.66871 -0.40548,-0.74858 -1.12287,-1.16966 -0.71739,-0.42107 -1.62192,-0.42107 -0.88894,0 -1.62192,0.42107 -0.71739,0.42108 -1.13847,1.16966 -0.40548,0.73298 -0.40548,1.66871 0,0.92012 0.40548,1.6687 0.42108,0.73299 1.13847,1.15406 0.73298,0.42108 1.62192,0.42108 z"
         style="font-style:normal;font-variant:normal;font-weight:normal;font-stretch:normal;font-family:Comfortaa;-inkscape-font-specification:Comfortaa;text-align:center;text-anchor:middle;stroke-width:0.38988486"
         id="path3700" />
      <path
         d="m 126.56217,127.07043 q 0.65501,0 1.0293,0.17155 0.38988,0.17155 0.38988,0.48346 0,0.0936 -0.0156,0.14036 -0.0624,0.21834 -0.20274,0.29631 -0.12477,0.078 -0.3587,0.078 -0.14036,0 -0.48345,-0.0312 -0.12477,-0.0156 -0.37429,-0.0156 -1.16966,0 -1.91824,0.62382 -0.73298,0.62382 -0.73298,1.62192 v 4.66302 q 0,0.28072 -0.15596,0.43667 -0.15595,0.15596 -0.43667,0.15596 -0.28071,0 -0.43667,-0.15596 -0.15595,-0.15595 -0.15595,-0.43667 v -7.34543 q 0,-0.28071 0.15595,-0.43667 0.15596,-0.15595 0.43667,-0.15595 0.28072,0 0.43667,0.15595 0.15596,0.15596 0.15596,0.43667 v 0.6862 q 0.45227,-0.65501 1.15406,-1.0137 0.70179,-0.3587 1.51275,-0.3587 z"
         style="font-style:normal;font-variant:normal;font-weight:normal;font-stretch:normal;font-family:Comfortaa;-inkscape-font-specification:Comfortaa;text-align:center;text-anchor:middle;stroke-width:0.38988486"
         id="path3702" />
      <path
         d="m 136.54298,127.21079 q 0.35869,0.14036 0.35869,0.45227 0,0.14036 -0.0624,0.28072 l -5.0529,11.10392 q -0.14036,0.35869 -0.45227,0.35869 -0.15596,0 -0.28072,-0.0624 -0.35869,-0.14036 -0.35869,-0.46786 0,-0.14036 0.0624,-0.28072 l 1.54394,-3.41539 v -0.0156 l -3.47777,-7.20508 q -0.0624,-0.12476 -0.0624,-0.28071 0,-0.32751 0.3431,-0.46787 0.12476,-0.0624 0.28071,-0.0624 0.32751,0 0.46787,0.32751 l 3.0411,6.4097 2.90074,-6.39411 q 0.15596,-0.3431 0.46786,-0.3431 0.14036,0 0.28072,0.0624 z"
         style="font-style:normal;font-variant:normal;font-weight:normal;font-stretch:normal;font-family:Comfortaa;-inkscape-font-specification:Comfortaa;text-align:center;text-anchor:middle;stroke-width:0.38988486"
         id="path3704" />
    </g>
  </g>
</svg>
