<?xml version="1.0" encoding="UTF-8" standalone="no"?>
<!-- Created with Inkscape (http://www.inkscape.org/) -->

<svg
   xmlns:dc="http://purl.org/dc/elements/1.1/"
   xmlns:cc="http://creativecommons.org/ns#"
   xmlns:rdf="http://www.w3.org/1999/02/22-rdf-syntax-ns#"
   xmlns:svg="http://www.w3.org/2000/svg"
   xmlns="http://www.w3.org/2000/svg"
   xmlns:sodipodi="http://sodipodi.sourceforge.net/DTD/sodipodi-0.dtd"
   xmlns:inkscape="http://www.inkscape.org/namespaces/inkscape"
   version="1.1"
   id="svg3802"
   width="265"
   height="115"
   viewBox="0 0 265 115"
   sodipodi:docname="logo-texto-marca-horizontal.svg"
   inkscape:version="0.92.4 (unknown)"
   inkscape:export-filename="/home/pcost8300/Imágenes/Treats Factory Images/logo.svg.png"
   inkscape:export-xdpi="640"
   inkscape:export-ydpi="640">
  <metadata
     id="metadata3808">
    <rdf:RDF>
      <cc:Work
         rdf:about="">
        <dc:format>image/svg+xml</dc:format>
        <dc:type
           rdf:resource="http://purl.org/dc/dcmitype/StillImage" />
        <dc:title />
      </cc:Work>
    </rdf:RDF>
  </metadata>
  <defs
     id="defs3806">
    <clipPath
       clipPathUnits="userSpaceOnUse"
       id="clipPath31">
      <rect
         id="rect33"
         width="13"
         height="16.741884"
         x="25.337418"
         y="6.2581158"
         style="stroke-width:1.0725559" />
    </clipPath>
  </defs>
  <sodipodi:namedview
     pagecolor="#ffffff"
     bordercolor="#666666"
     borderopacity="1"
     objecttolerance="10"
     gridtolerance="10"
     guidetolerance="10"
     inkscape:pageopacity="0"
     inkscape:pageshadow="2"
     inkscape:window-width="1366"
     inkscape:window-height="704"
     id="namedview3804"
     showgrid="false"
     inkscape:zoom="2"
     inkscape:cx="79.400638"
     inkscape:cy="43.968253"
     inkscape:window-x="0"
     inkscape:window-y="27"
     inkscape:window-maximized="1"
     inkscape:current-layer="text852"
     showguides="false"
     inkscape:guide-bbox="true"
     borderlayer="false">
    <inkscape:grid
       type="xygrid"
       id="grid3849" />
    <sodipodi:guide
       position="28.252427,85"
       orientation="0,1"
       id="guide3851"
       inkscape:locked="false" />
    <sodipodi:guide
       position="48,178"
       orientation="1,0"
       id="guide3861"
       inkscape:locked="false" />
    <sodipodi:guide
       position="105,182"
       orientation="1,0"
       id="guide3863"
       inkscape:locked="false" />
    <sodipodi:guide
       position="75,210"
       orientation="1,0"
       id="guide858"
       inkscape:locked="false" />
    <sodipodi:guide
       position="72.809901,203.16062"
       orientation="0,1"
       id="guide862"
       inkscape:locked="false" />
    <sodipodi:guide
       position="82,202"
       orientation="1,0"
       id="guide864"
       inkscape:locked="false" />
    <sodipodi:guide
       position="71,201.375"
       orientation="1,0"
       id="guide866"
       inkscape:locked="false" />
  </sodipodi:namedview>
  <g
     id="g4612"
     transform="translate(-15.068862,3.943044)">
    <g
       id="g4659">
      <g
         transform="translate(0,6.5)"
         id="g872">
        <g
           aria-label="F"
           transform="scale(1.0345656,0.96658926)"
           style="font-style:normal;font-weight:normal;font-size:20.98368263px;line-height:1.25;font-family:sans-serif;letter-spacing:0px;word-spacing:0px;fill:#000000;fill-opacity:1;stroke:none;stroke-width:0.52459216"
           id="text3820">
          <path
             d="m 113.03801,41.880206 v 2.141401 h -5.29715 v 3.852473 h 4.43649 v 2.141401 h -4.43649 v 5.471332 h -2.70493 V 41.880206 Z"
             style="font-style:normal;font-variant:normal;font-weight:bold;font-stretch:normal;font-family:carlito;-inkscape-font-specification:'carlito Bold';stroke-width:0.52459216"
             id="path2924" />
        </g>
        <g
           aria-label="T"
           transform="scale(1.0784727,0.9272372)"
           style="font-style:normal;font-weight:normal;font-size:21.87356377px;line-height:1.25;font-family:sans-serif;letter-spacing:0px;word-spacing:0px;fill:#000000;fill-opacity:1;stroke:none;stroke-width:0.546839"
           id="text3824">
          <path
             d="m 47.726909,43.657826 v 2.285617 H 43.903308 V 57.841465 H 41.10503 V 45.943443 h -3.823602 v -2.285617 z"
             style="font-style:normal;font-variant:normal;font-weight:bold;font-stretch:normal;font-family:carlito;-inkscape-font-specification:'carlito Bold';stroke-width:0.546839"
             id="path2927" />
        </g>
        <g
           transform="translate(4.587427,-28.387899)"
           id="g3859">
          <g
             id="g3854">
            <path
               inkscape:connector-curvature="0"
               id="path3845"
               d="m 30.481108,31.061893 90.001652,88.765927 -0.30893,-0.10297"
               style="fill:none;stroke:#000000;stroke-width:1px;stroke-linecap:butt;stroke-linejoin:miter;stroke-opacity:1" />
          </g>
          <path
             inkscape:connector-curvature="0"
             id="path3847"
             d="m 119.8649,30.44403 -88.765929,90.00165 0.10297,-0.30893"
             style="fill:none;stroke:#000000;stroke-width:1px;stroke-linecap:butt;stroke-linejoin:miter;stroke-opacity:1" />
        </g>
        <g
           style="fill:none;stroke:#000000;stroke-width:4;stroke-linecap:round;stroke-linejoin:round;stroke-miterlimit:4;stroke-dasharray:none;stroke-opacity:1"
           transform="translate(72.995984,61.269971)"
           id="g48">
          <path
             style="fill:none;stroke:#000000;stroke-width:4;stroke-linecap:round;stroke-linejoin:round;stroke-miterlimit:4;stroke-dasharray:none;stroke-opacity:1"
             d="m 19.601942,21 c 5.804603,-15.177128 15,-13.9999997 14.926103,-9.335945 -0.0777,4.904133 -5.508458,9.262412 -11.801278,7.648999 C 20.607663,18.769738 14.446813,15.350069 15.997722,11.737131 17.601942,8.0000003 25.601942,6.0000003 30.601942,21"
             id="path3873"
             inkscape:connector-curvature="0"
             sodipodi:nodetypes="csssc"
             clip-path="url(#clipPath31)"
             transform="translate(-18.346013,1.7418842)" />
          <path
             clip-path="url(#clipPath31)"
             sodipodi:nodetypes="cssssssc"
             inkscape:connector-curvature="0"
             id="path35"
             d="m 19.601942,21 c 1.296264,-3.389305 2.761629,-5.963018 4.255099,-7.864441 5.194211,-6.6130482 10.728399,-5.0939978 10.671004,-1.471504 -0.0777,4.904133 -5.508458,9.262412 -11.801278,7.648999 -2.119104,-0.543316 -8.279953,-3.962985 -6.729045,-7.575923 0.697161,-1.62408 2.602224,-2.9200867 4.944037,-2.6353305 1.086286,0.1320885 2.266548,0.6043115 3.463816,1.5417005 2.160898,1.691852 4.377196,4.898985 6.196367,10.356499"
             style="fill:none;stroke:#000000;stroke-width:4;stroke-linecap:round;stroke-linejoin:round;stroke-miterlimit:4;stroke-dasharray:none;stroke-opacity:1"
             transform="matrix(-1,0,0,1,32.492792,1.7417496)" />
        </g>
        <g
           transform="translate(3.6568129,73.55105)"
           id="g888">
          <path
             style="fill:#000000;stroke:#000000;stroke-width:1.08148038;stroke-linecap:round;stroke-linejoin:round;stroke-miterlimit:0;stroke-dasharray:none;stroke-opacity:1"
             d="m 71.574196,-52.644558 h 9.843519 v 3.093519 h -9.843519 z"
             id="rect860" />
          <g
             id="g880">
            <path
               style="fill:#000000;fill-opacity:1;stroke:#000000;stroke-width:1.7010864;stroke-linecap:round;stroke-linejoin:round;stroke-miterlimit:0;stroke-dasharray:none;stroke-opacity:1"
               d="m 82.594946,-62.645256 a 6.0397091,6.2369566 0 0 1 -6.039709,6.236957 6.0397091,6.2369566 0 0 1 -6.039709,-6.236957 6.0397091,6.2369566 0 0 1 6.039709,-6.236957 6.0397091,6.2369566 0 0 1 6.039709,6.236957 z"
               id="path868" />
            <path
               style="fill:#000000;fill-opacity:1;stroke:#000000;stroke-width:1.51549447;stroke-linecap:round;stroke-linejoin:round;stroke-miterlimit:0;stroke-dasharray:none;stroke-opacity:1"
               d="m 77.143675,-59.773403 a 5.2831254,3.6656508 0 0 1 -5.283125,3.665651 5.2831254,3.6656508 0 0 1 -5.283125,-3.665651 5.2831254,3.6656508 0 0 1 5.283125,-3.665651 5.2831254,3.6656508 0 0 1 5.283125,3.665651 z"
               id="path870" />
            <path
               style="fill:#000000;fill-opacity:1;stroke:#000000;stroke-width:1.51549447;stroke-linecap:round;stroke-linejoin:round;stroke-miterlimit:0;stroke-dasharray:none;stroke-opacity:1"
               d="m 86.247672,-59.817596 a 5.2831254,3.6656508 0 0 1 -5.283126,3.66565 5.2831254,3.6656508 0 0 1 -5.283125,-3.66565 5.2831254,3.6656508 0 0 1 5.283125,-3.665651 5.2831254,3.6656508 0 0 1 5.283126,3.665651 z"
               id="ellipse872" />
            <path
               style="fill:#000000;fill-opacity:1;stroke:#000000;stroke-width:1.31363142;stroke-linecap:round;stroke-linejoin:round;stroke-miterlimit:0;stroke-dasharray:none;stroke-opacity:1"
               d="m 71.670578,-58.520378 h 9.671883 v 4.019081 h -9.671883 z"
               id="rect874" />
          </g>
        </g>
      </g>
      <g
         aria-label="The Treats Factory"
         transform="scale(1.0110927,0.989029)"
         style="font-style:normal;font-weight:normal;font-size:15.59539509px;line-height:1.25;font-family:sans-serif;letter-spacing:0px;word-spacing:0px;fill:#000000;fill-opacity:1;stroke:none;stroke-width:0.38988486"
         id="text852">
        <path
           d="m 194.0472,36.221264 q 0.24953,0 0.40548,0.155954 0.15595,0.155954 0.15595,0.405481 0,0.233931 -0.15595,0.389885 -0.15595,0.155953 -0.40548,0.155953 h -3.7117 v 10.464511 q 0,0.249526 -0.17155,0.436671 -0.17155,0.171549 -0.43668,0.171549 -0.24952,0 -0.43667,-0.171549 -0.17155,-0.187145 -0.17155,-0.436671 V 37.328537 h -3.6961 q -0.24953,0 -0.40548,-0.155953 -0.15596,-0.155954 -0.15596,-0.389885 0,-0.249527 0.15596,-0.405481 0.15595,-0.155954 0.40548,-0.155954 z"
           style="font-style:normal;font-variant:normal;font-weight:normal;font-stretch:normal;font-family:Comfortaa;-inkscape-font-specification:Comfortaa;text-align:center;text-anchor:middle;stroke-width:0.38988486"
           id="path3726" />
        <path
           d="m 200.27439,39.777015 q 1.10728,0 1.98062,0.467861 0.88893,0.467862 1.38799,1.372395 0.49905,0.888938 0.49905,2.136569 v 4.054803 q 0,0.249526 -0.17155,0.421076 -0.17155,0.171549 -0.42107,0.171549 -0.26513,0 -0.43668,-0.171549 -0.17155,-0.17155 -0.17155,-0.421076 V 43.75384 q 0,-1.38799 -0.77976,-2.105378 -0.76418,-0.732984 -2.01181,-0.732984 -0.76418,0 -1.38799,0.296313 -0.60822,0.296312 -0.96692,0.826556 -0.35869,0.514648 -0.35869,1.154059 v 4.616237 q 0,0.265122 -0.17155,0.436671 -0.15595,0.155954 -0.42107,0.155954 -0.26513,0 -0.43668,-0.155954 -0.17155,-0.171549 -0.17155,-0.436671 V 36.829485 q 0,-0.265122 0.17155,-0.436671 0.17155,-0.17155 0.43668,-0.17155 0.26512,0 0.42107,0.17155 0.17155,0.171549 0.17155,0.436671 v 4.179566 q 0.51465,-0.57703 1.24763,-0.904533 0.73299,-0.327503 1.59073,-0.327503 z"
           style="font-style:normal;font-variant:normal;font-weight:normal;font-stretch:normal;font-family:Comfortaa;-inkscape-font-specification:Comfortaa;text-align:center;text-anchor:middle;stroke-width:0.38988486"
           id="path3728" />
        <path
           d="m 210.43845,39.79261 q 1.15406,0 2.04299,0.545839 0.88894,0.530243 1.3724,1.481562 0.49905,0.951319 0.49905,2.16776 0,0.249527 -0.15595,0.40548 -0.15596,0.140359 -0.40548,0.140359 h -6.30054 q 0.12476,1.278822 0.9981,2.074188 0.87335,0.795365 2.18336,0.795365 0.56143,0 1.12287,-0.187145 0.57703,-0.20274 0.92012,-0.499053 0.20275,-0.155954 0.42108,-0.155954 0.17155,0 0.3431,0.124764 0.20274,0.187144 0.20274,0.421075 0,0.20274 -0.17155,0.358694 -0.51465,0.436671 -1.31001,0.732984 -0.79537,0.280717 -1.52835,0.280717 -1.24763,0 -2.23014,-0.545839 -0.98251,-0.561434 -1.54395,-1.543944 -0.54584,-0.998105 -0.54584,-2.245737 0,-1.263227 0.51465,-2.245737 0.53025,-0.998105 1.45037,-1.543944 0.93573,-0.561434 2.12098,-0.561434 z m 0,1.076082 q -1.18525,0 -1.96502,0.732984 -0.77977,0.732983 -0.95132,1.933829 h 5.70791 q -0.12476,-1.200846 -0.87334,-1.933829 -0.74858,-0.732984 -1.91823,-0.732984 z"
           style="font-style:normal;font-variant:normal;font-weight:normal;font-stretch:normal;font-family:Comfortaa;-inkscape-font-specification:Comfortaa;text-align:center;text-anchor:middle;stroke-width:0.38988486"
           id="path3730" />
        <path
           d="m 151.32739,56.189123 q 0.24953,0 0.40548,0.155954 0.15596,0.155954 0.15596,0.405481 0,0.233931 -0.15596,0.389884 -0.15595,0.155954 -0.40548,0.155954 h -3.7117 v 10.464511 q 0,0.249526 -0.17155,0.436671 -0.17155,0.171549 -0.43667,0.171549 -0.24953,0 -0.43667,-0.171549 -0.17155,-0.187145 -0.17155,-0.436671 V 57.296396 h -3.69611 q -0.24953,0 -0.40548,-0.155954 -0.15596,-0.155953 -0.15596,-0.389884 0,-0.249527 0.15596,-0.405481 0.15595,-0.155954 0.40548,-0.155954 z"
           style="font-style:normal;font-variant:normal;font-weight:normal;font-stretch:normal;font-family:Comfortaa;-inkscape-font-specification:Comfortaa;text-align:center;text-anchor:middle;stroke-width:0.38988486"
           id="path3732" />
        <path
           d="m 155.3571,59.744873 q 0.655,0 1.02929,0.17155 0.38989,0.171549 0.38989,0.483457 0,0.09357 -0.0156,0.140359 -0.0624,0.218335 -0.20274,0.296312 -0.12476,0.07798 -0.35869,0.07798 -0.14036,0 -0.48346,-0.03119 -0.12476,-0.01559 -0.37429,-0.01559 -1.16965,0 -1.91823,0.623816 -0.73299,0.623815 -0.73299,1.621921 v 4.663023 q 0,0.280717 -0.15595,0.436671 -0.15596,0.155954 -0.43667,0.155954 -0.28072,0 -0.43667,-0.155954 -0.15596,-0.155954 -0.15596,-0.436671 v -7.345431 q 0,-0.280717 0.15596,-0.436671 0.15595,-0.155954 0.43667,-0.155954 0.28071,0 0.43667,0.155954 0.15595,0.155954 0.15595,0.436671 v 0.686197 q 0.45227,-0.655006 1.15406,-1.0137 0.70179,-0.358695 1.51276,-0.358695 z"
           style="font-style:normal;font-variant:normal;font-weight:normal;font-stretch:normal;font-family:Comfortaa;-inkscape-font-specification:Comfortaa;text-align:center;text-anchor:middle;stroke-width:0.38988486"
           id="path3734" />
        <path
           d="m 161.47439,59.760469 q 1.15406,0 2.043,0.545839 0.88893,0.530243 1.37239,1.481562 0.49905,0.951319 0.49905,2.16776 0,0.249526 -0.15595,0.40548 -0.15595,0.140359 -0.40548,0.140359 h -6.30054 q 0.12476,1.278822 0.9981,2.074187 0.87335,0.795366 2.18336,0.795366 0.56143,0 1.12287,-0.187145 0.57703,-0.20274 0.92013,-0.499053 0.20274,-0.155954 0.42107,-0.155954 0.17155,0 0.3431,0.124763 0.20274,0.187145 0.20274,0.421076 0,0.20274 -0.17155,0.358694 -0.51465,0.436671 -1.31001,0.732984 -0.79537,0.280717 -1.52835,0.280717 -1.24763,0 -2.23014,-0.545839 -0.98251,-0.561434 -1.54395,-1.543944 -0.54583,-0.998105 -0.54583,-2.245737 0,-1.263227 0.51464,-2.245737 0.53025,-0.998105 1.45038,-1.543944 0.93572,-0.561434 2.12097,-0.561434 z m 0,1.076082 q -1.18525,0 -1.96502,0.732984 -0.77977,0.732983 -0.95132,1.933829 h 5.70791 q -0.12476,-1.200846 -0.87334,-1.933829 -0.74858,-0.732984 -1.91823,-0.732984 z"
           style="font-style:normal;font-variant:normal;font-weight:normal;font-stretch:normal;font-family:Comfortaa;-inkscape-font-specification:Comfortaa;text-align:center;text-anchor:middle;stroke-width:0.38988486"
           id="path3736" />
        <path
           d="m 170.98368,59.760469 q 1.21644,0 2.19895,0.577029 0.99811,0.561435 1.55954,1.55954 0.57703,0.998105 0.57703,2.214546 v 3.664918 q 0,0.249526 -0.17155,0.421076 -0.17155,0.171549 -0.43667,0.171549 -0.26512,0 -0.43667,-0.155954 -0.17155,-0.171549 -0.17155,-0.436671 v -0.935724 q -0.54584,0.748579 -1.38799,1.18525 -0.84215,0.421076 -1.85585,0.421076 -1.18525,0 -2.15217,-0.561434 -0.95131,-0.57703 -1.51275,-1.55954 -0.54584,-0.998105 -0.54584,-2.214546 0,-1.216441 0.56144,-2.214546 0.57703,-0.998105 1.55954,-1.55954 0.9981,-0.577029 2.21454,-0.577029 z m 0,7.594957 q 0.88894,0 1.60633,-0.421075 0.71739,-0.421076 1.12287,-1.15406 0.42107,-0.748579 0.42107,-1.668707 0,-0.920128 -0.42107,-1.653112 -0.40548,-0.748579 -1.12287,-1.169654 -0.71739,-0.436672 -1.60633,-0.436672 -0.88894,0 -1.62192,0.436672 -0.71739,0.421075 -1.13846,1.169654 -0.40548,0.732984 -0.40548,1.653112 0,0.920128 0.40548,1.668707 0.42107,0.732984 1.13846,1.15406 0.73298,0.421075 1.62192,0.421075 z"
           style="font-style:normal;font-variant:normal;font-weight:normal;font-stretch:normal;font-family:Comfortaa;-inkscape-font-specification:Comfortaa;text-align:center;text-anchor:middle;stroke-width:0.38988486"
           id="path3738" />
        <path
           d="m 181.42845,67.168282 q 0.24953,0 0.40548,0.171549 0.15596,0.171549 0.15596,0.436671 0,0.249526 -0.18715,0.421076 -0.18714,0.171549 -0.46786,0.171549 h -0.3275 q -0.82656,0 -1.48157,-0.389885 -0.655,-0.40548 -1.02929,-1.076082 -0.3587,-0.686198 -0.3587,-1.543944 v -4.163971 h -1.0137 q -0.24952,0 -0.40548,-0.140358 -0.14035,-0.155954 -0.14035,-0.37429 0,-0.233931 0.14035,-0.374289 0.15596,-0.155954 0.40548,-0.155954 h 1.0137 v -2.417287 q 0,-0.265121 0.15596,-0.436671 0.17155,-0.171549 0.43667,-0.171549 0.26512,0 0.43667,0.171549 0.17155,0.17155 0.17155,0.436671 v 2.417287 h 1.76228 q 0.24953,0 0.38988,0.155954 0.15596,0.140358 0.15596,0.374289 0,0.218336 -0.15596,0.37429 -0.14035,0.140358 -0.38988,0.140358 h -1.76228 v 4.163971 q 0,0.795365 0.46786,1.310013 0.46786,0.499053 1.20085,0.499053 z"
           style="font-style:normal;font-variant:normal;font-weight:normal;font-stretch:normal;font-family:Comfortaa;-inkscape-font-specification:Comfortaa;text-align:center;text-anchor:middle;stroke-width:0.38988486"
           id="path3740" />
        <path
           d="m 186.9234,68.447104 q -0.96692,0 -1.85586,-0.327503 -0.88893,-0.327504 -1.43477,-0.920129 -0.15596,-0.187144 -0.15596,-0.358694 0,-0.265122 0.24953,-0.467862 0.18714,-0.140358 0.38988,-0.140358 0.26513,0 0.45227,0.218335 0.37429,0.436671 0.98251,0.670602 0.62382,0.233931 1.3724,0.233931 1.09167,0 1.63751,-0.374289 0.54584,-0.37429 0.56144,-0.98251 0,-0.561434 -0.54584,-0.935724 -0.54584,-0.374289 -1.73109,-0.561434 -1.52835,-0.249526 -2.29253,-0.857747 -0.74857,-0.623816 -0.74857,-1.497158 0,-1.138464 0.87334,-1.762279 0.88894,-0.623816 2.21454,-0.623816 1.0293,0 1.79347,0.358694 0.76418,0.343099 1.23204,0.966914 0.12476,0.202741 0.12476,0.358695 0,0.265121 -0.24952,0.421075 -0.10917,0.07798 -0.29631,0.07798 -0.32751,0 -0.54584,-0.233931 -0.76418,-0.873342 -2.08979,-0.873342 -0.85774,0 -1.37239,0.358694 -0.51465,0.343099 -0.51465,0.873342 0,0.561435 0.48346,0.904533 0.48346,0.327504 1.71549,0.530244 1.66871,0.280717 2.3861,0.920128 0.71738,0.623816 0.71738,1.559539 0,0.717389 -0.43667,1.278823 -0.42107,0.561434 -1.18525,0.873342 -0.76417,0.311908 -1.73108,0.311908 z"
           style="font-style:normal;font-variant:normal;font-weight:normal;font-stretch:normal;font-family:Comfortaa;-inkscape-font-specification:Comfortaa;text-align:center;text-anchor:middle;stroke-width:0.38988486"
           id="path3742" />
        <path
           d="m 196.71779,68.369127 q -0.24953,0 -0.43667,-0.171549 -0.17155,-0.187145 -0.17155,-0.436671 V 56.797344 q 0,-0.265122 0.17155,-0.436671 0.18714,-0.17155 0.43667,-0.17155 h 7.31424 q 0.26512,0 0.43667,0.17155 0.17155,0.171549 0.17155,0.421075 0,0.249527 -0.17155,0.421076 -0.17155,0.155954 -0.43667,0.155954 h -6.70602 v 4.304329 h 4.88136 q 0.26512,0 0.43667,0.171549 0.17155,0.155954 0.17155,0.421076 0,0.249526 -0.17155,0.421076 -0.17155,0.171549 -0.43667,0.171549 h -4.88136 v 4.91255 q 0,0.249526 -0.17155,0.436671 -0.17155,0.171549 -0.43667,0.171549 z"
           style="font-style:normal;font-variant:normal;font-weight:normal;font-stretch:normal;font-family:Comfortaa;-inkscape-font-specification:Comfortaa;text-align:center;text-anchor:middle;stroke-width:0.38988486"
           id="path3744" />
        <path
           d="m 210.5509,59.760469 q 1.21645,0 2.19896,0.577029 0.9981,0.561435 1.55953,1.55954 0.57703,0.998105 0.57703,2.214546 v 3.664918 q 0,0.249526 -0.17154,0.421076 -0.17155,0.171549 -0.43668,0.171549 -0.26512,0 -0.43667,-0.155954 -0.17155,-0.171549 -0.17155,-0.436671 v -0.935724 q -0.54584,0.748579 -1.38799,1.18525 -0.84215,0.421076 -1.85585,0.421076 -1.18525,0 -2.15216,-0.561434 -0.95132,-0.57703 -1.51276,-1.55954 -0.54584,-0.998105 -0.54584,-2.214546 0,-1.216441 0.56144,-2.214546 0.57703,-0.998105 1.55954,-1.55954 0.9981,-0.577029 2.21454,-0.577029 z m 0,7.594957 q 0.88894,0 1.60633,-0.421075 0.71739,-0.421076 1.12287,-1.15406 0.42107,-0.748579 0.42107,-1.668707 0,-0.920128 -0.42107,-1.653112 -0.40548,-0.748579 -1.12287,-1.169654 -0.71739,-0.436672 -1.60633,-0.436672 -0.88893,0 -1.62192,0.436672 -0.71738,0.421075 -1.13846,1.169654 -0.40548,0.732984 -0.40548,1.653112 0,0.920128 0.40548,1.668707 0.42108,0.732984 1.13846,1.15406 0.73299,0.421075 1.62192,0.421075 z"
           style="font-style:normal;font-variant:normal;font-weight:normal;font-stretch:normal;font-family:Comfortaa;-inkscape-font-specification:Comfortaa;text-align:center;text-anchor:middle;stroke-width:0.38988486"
           id="path3746" />
        <path
           d="m 221.04246,68.447104 q -1.21644,0 -2.18335,-0.561434 -0.96692,-0.57703 -1.52835,-1.55954 -0.54584,-0.998105 -0.54584,-2.214546 0,-1.247632 0.53024,-2.230141 0.53025,-0.998106 1.46597,-1.55954 0.93572,-0.561434 2.10538,-0.561434 1.94942,0 3.16586,1.497158 0.12477,0.140358 0.12477,0.327503 0,0.249526 -0.26513,0.436671 -0.14035,0.09357 -0.29631,0.09357 -0.23393,0 -0.45226,-0.23393 -0.46787,-0.514648 -1.0293,-0.764175 -0.56143,-0.265122 -1.24763,-0.265122 -0.85775,0 -1.52835,0.421076 -0.6706,0.40548 -1.04489,1.154059 -0.3587,0.748579 -0.3587,1.684303 0,0.920128 0.38989,1.668707 0.38988,0.732984 1.09168,1.15406 0.70179,0.421075 1.60632,0.421075 1.24763,0 2.01181,-0.670602 0.20274,-0.171549 0.42107,-0.171549 0.18715,0 0.3431,0.124763 0.21834,0.187145 0.21834,0.421076 0,0.20274 -0.15596,0.343098 -1.12286,1.044892 -2.83836,1.044892 z"
           style="font-style:normal;font-variant:normal;font-weight:normal;font-stretch:normal;font-family:Comfortaa;-inkscape-font-specification:Comfortaa;text-align:center;text-anchor:middle;stroke-width:0.38988486"
           id="path3748" />
        <path
           d="m 230.28591,67.168282 q 0.24952,0 0.40548,0.171549 0.15595,0.171549 0.15595,0.436671 0,0.249526 -0.18714,0.421076 -0.18715,0.171549 -0.46787,0.171549 h -0.3275 q -0.82656,0 -1.48156,-0.389885 -0.65501,-0.40548 -1.0293,-1.076082 -0.35869,-0.686198 -0.35869,-1.543944 v -4.163971 h -1.0137 q -0.24953,0 -0.40548,-0.140358 -0.14036,-0.155954 -0.14036,-0.37429 0,-0.233931 0.14036,-0.374289 0.15595,-0.155954 0.40548,-0.155954 h 1.0137 v -2.417287 q 0,-0.265121 0.15595,-0.436671 0.17155,-0.171549 0.43667,-0.171549 0.26512,0 0.43667,0.171549 0.17155,0.17155 0.17155,0.436671 v 2.417287 h 1.76228 q 0.24953,0 0.38989,0.155954 0.15595,0.140358 0.15595,0.374289 0,0.218336 -0.15595,0.37429 -0.14036,0.140358 -0.38989,0.140358 h -1.76228 v 4.163971 q 0,0.795365 0.46786,1.310013 0.46787,0.499053 1.20085,0.499053 z"
           style="font-style:normal;font-variant:normal;font-weight:normal;font-stretch:normal;font-family:Comfortaa;-inkscape-font-specification:Comfortaa;text-align:center;text-anchor:middle;stroke-width:0.38988486"
           id="path3750" />
        <path
           d="m 236.68537,68.447104 q -1.23203,0 -2.23014,-0.561434 -0.98251,-0.561435 -1.54394,-1.543944 -0.56144,-0.998106 -0.56144,-2.230142 0,-1.232036 0.56144,-2.230141 0.56143,-0.998106 1.54394,-1.55954 0.99811,-0.561434 2.23014,-0.561434 1.23204,0 2.21455,0.561434 0.98251,0.561434 1.54394,1.55954 0.57703,0.998105 0.57703,2.230141 0,1.232036 -0.56143,2.230142 -0.56144,0.982509 -1.55954,1.543944 -0.98251,0.561434 -2.21455,0.561434 z m 0,-1.091678 q 0.90454,0 1.62192,-0.421075 0.71739,-0.421076 1.12287,-1.15406 0.40548,-0.748579 0.40548,-1.668707 0,-0.935724 -0.40548,-1.668707 -0.40548,-0.748579 -1.12287,-1.169655 -0.71738,-0.421076 -1.62192,-0.421076 -0.88893,0 -1.62192,0.421076 -0.71739,0.421076 -1.13846,1.169655 -0.40548,0.732983 -0.40548,1.668707 0,0.920128 0.40548,1.668707 0.42107,0.732984 1.13846,1.15406 0.73299,0.421075 1.62192,0.421075 z"
           style="font-style:normal;font-variant:normal;font-weight:normal;font-stretch:normal;font-family:Comfortaa;-inkscape-font-specification:Comfortaa;text-align:center;text-anchor:middle;stroke-width:0.38988486"
           id="path3752" />
        <path
           d="m 247.22372,59.744873 q 0.655,0 1.02929,0.17155 0.38989,0.171549 0.38989,0.483457 0,0.09357 -0.0156,0.140359 -0.0624,0.218335 -0.20274,0.296312 -0.12476,0.07798 -0.35869,0.07798 -0.14036,0 -0.48346,-0.03119 -0.12476,-0.01559 -0.37429,-0.01559 -1.16965,0 -1.91823,0.623816 -0.73299,0.623815 -0.73299,1.621921 v 4.663023 q 0,0.280717 -0.15595,0.436671 -0.15595,0.155954 -0.43667,0.155954 -0.28072,0 -0.43667,-0.155954 -0.15596,-0.155954 -0.15596,-0.436671 v -7.345431 q 0,-0.280717 0.15596,-0.436671 0.15595,-0.155954 0.43667,-0.155954 0.28072,0 0.43667,0.155954 0.15595,0.155954 0.15595,0.436671 v 0.686197 q 0.45227,-0.655006 1.15406,-1.0137 0.7018,-0.358695 1.51276,-0.358695 z"
           style="font-style:normal;font-variant:normal;font-weight:normal;font-stretch:normal;font-family:Comfortaa;-inkscape-font-specification:Comfortaa;text-align:center;text-anchor:middle;stroke-width:0.38988486"
           id="path3754" />
        <path
           d="m 257.20453,59.885232 q 0.35869,0.140359 0.35869,0.452266 0,0.140359 -0.0624,0.280718 l -5.05291,11.103921 q -0.14036,0.358694 -0.45227,0.358694 -0.15595,0 -0.28071,-0.06238 -0.3587,-0.140358 -0.3587,-0.467861 0,-0.140359 0.0624,-0.280718 l 1.54395,-3.415391 v -0.0156 l -3.47777,-7.205072 q -0.0624,-0.124763 -0.0624,-0.280717 0,-0.327503 0.3431,-0.467862 0.12477,-0.06238 0.28072,-0.06238 0.3275,0 0.46786,0.327504 l 3.0411,6.409707 2.90075,-6.394112 q 0.15595,-0.343099 0.46786,-0.343099 0.14036,0 0.28072,0.06238 z"
           style="font-style:normal;font-variant:normal;font-weight:normal;font-stretch:normal;font-family:Comfortaa;-inkscape-font-specification:Comfortaa;text-align:center;text-anchor:middle;stroke-width:0.38988486"
           id="path3756" />
      </g>
    </g>
  </g>
</svg>
