<?xml version="1.0" encoding="UTF-8" standalone="no"?>
<!-- Created with Inkscape (http://www.inkscape.org/) -->

<svg
   xmlns:dc="http://purl.org/dc/elements/1.1/"
   xmlns:cc="http://creativecommons.org/ns#"
   xmlns:rdf="http://www.w3.org/1999/02/22-rdf-syntax-ns#"
   xmlns:svg="http://www.w3.org/2000/svg"
   xmlns="http://www.w3.org/2000/svg"
   xmlns:sodipodi="http://sodipodi.sourceforge.net/DTD/sodipodi-0.dtd"
   xmlns:inkscape="http://www.inkscape.org/namespaces/inkscape"
   version="1.1"
   id="svg3802"
   width="150"
   height="150"
   viewBox="0 0 150 150"
   sodipodi:docname="logo.svg"
   inkscape:version="0.92.4 (unknown)"
   inkscape:export-filename="/home/pcost8300/Imágenes/Treats Factory Images/logo.svg.png"
   inkscape:export-xdpi="640"
   inkscape:export-ydpi="640">
  <metadata
     id="metadata3808">
    <rdf:RDF>
      <cc:Work
         rdf:about="">
        <dc:format>image/svg+xml</dc:format>
        <dc:type
           rdf:resource="http://purl.org/dc/dcmitype/StillImage" />
        <dc:title></dc:title>
      </cc:Work>
    </rdf:RDF>
  </metadata>
  <defs
     id="defs3806">
    <clipPath
       clipPathUnits="userSpaceOnUse"
       id="clipPath31">
      <rect
         id="rect33"
         width="13"
         height="16.741884"
         x="25.337418"
         y="6.2581158"
         style="stroke-width:1.0725559" />
    </clipPath>
  </defs>
  <sodipodi:namedview
     pagecolor="#ffffff"
     bordercolor="#666666"
     borderopacity="1"
     objecttolerance="10"
     gridtolerance="10"
     guidetolerance="10"
     inkscape:pageopacity="0"
     inkscape:pageshadow="2"
     inkscape:window-width="1366"
     inkscape:window-height="704"
     id="namedview3804"
     showgrid="false"
     inkscape:zoom="2"
     inkscape:cx="-17.164211"
     inkscape:cy="76.786131"
     inkscape:window-x="0"
     inkscape:window-y="27"
     inkscape:window-maximized="1"
     inkscape:current-layer="g4612"
     showguides="false"
     inkscape:guide-bbox="true">
    <inkscape:grid
       type="xygrid"
       id="grid3849" />
    <sodipodi:guide
       position="28.252427,85"
       orientation="0,1"
       id="guide3851"
       inkscape:locked="false" />
    <sodipodi:guide
       position="48,178"
       orientation="1,0"
       id="guide3861"
       inkscape:locked="false" />
    <sodipodi:guide
       position="105,182"
       orientation="1,0"
       id="guide3863"
       inkscape:locked="false" />
    <sodipodi:guide
       position="75,210"
       orientation="1,0"
       id="guide858"
       inkscape:locked="false" />
    <sodipodi:guide
       position="72.809901,203.16062"
       orientation="0,1"
       id="guide862"
       inkscape:locked="false" />
    <sodipodi:guide
       position="82,202"
       orientation="1,0"
       id="guide864"
       inkscape:locked="false" />
    <sodipodi:guide
       position="71,201.375"
       orientation="1,0"
       id="guide866"
       inkscape:locked="false" />
  </sodipodi:namedview>
  <g
     id="g4612"
     transform="translate(-5.069361,3.4430439)">
    <g
       aria-label="F"
       transform="scale(1.0345656,0.96658926)"
       style="font-style:normal;font-weight:normal;font-size:20.98368263px;line-height:1.25;font-family:sans-serif;letter-spacing:0px;word-spacing:0px;fill:#000000;fill-opacity:1;stroke:none;stroke-width:0.52459216"
       id="text3820">
      <path
         d="m 113.03801,67.227065 v 2.141401 h -5.29715 v 3.852473 h 4.43649 v 2.141401 h -4.43649 v 5.471332 h -2.70493 V 67.227065 Z"
         style="font-style:normal;font-variant:normal;font-weight:bold;font-stretch:normal;font-family:carlito;-inkscape-font-specification:'carlito Bold';stroke-width:0.52459216"
         id="path3832" />
    </g>
    <g
       aria-label="T"
       transform="scale(1.0784727,0.9272372)"
       style="font-style:normal;font-weight:normal;font-size:21.87356377px;line-height:1.25;font-family:sans-serif;letter-spacing:0px;word-spacing:0px;fill:#000000;fill-opacity:1;stroke:none;stroke-width:0.546839"
       id="text3824">
      <path
         d="m 47.726909,70.080407 v 2.285616 H 43.903308 V 84.264046 H 41.10503 V 72.366023 h -3.823602 v -2.285616 z"
         style="font-style:normal;font-variant:normal;font-weight:bold;font-stretch:normal;font-family:carlito;-inkscape-font-specification:'carlito Bold';stroke-width:0.546839"
         id="path3829" />
    </g>
    <g
       transform="translate(4.587427,-3.8878989)"
       id="g3859">
      <g
         id="g3854">
        <path
           inkscape:connector-curvature="0"
           id="path3845"
           d="m 30.481108,31.061893 90.001652,88.765927 -0.30893,-0.10297"
           style="fill:none;stroke:#000000;stroke-width:1px;stroke-linecap:butt;stroke-linejoin:miter;stroke-opacity:1" />
      </g>
      <path
         inkscape:connector-curvature="0"
         id="path3847"
         d="m 119.8649,30.44403 -88.765929,90.00165 0.10297,-0.30893"
         style="fill:none;stroke:#000000;stroke-width:1px;stroke-linecap:butt;stroke-linejoin:miter;stroke-opacity:1" />
    </g>
    <g
       style="fill:none;stroke:#000000;stroke-width:4;stroke-linecap:round;stroke-linejoin:round;stroke-miterlimit:4;stroke-dasharray:none;stroke-opacity:1"
       transform="translate(72.995984,85.769971)"
       id="g48">
      <path
         style="fill:none;stroke:#000000;stroke-width:4;stroke-linecap:round;stroke-linejoin:round;stroke-miterlimit:4;stroke-dasharray:none;stroke-opacity:1"
         d="m 19.601942,21 c 5.804603,-15.177128 15,-13.9999997 14.926103,-9.335945 -0.0777,4.904133 -5.508458,9.262412 -11.801278,7.648999 C 20.607663,18.769738 14.446813,15.350069 15.997722,11.737131 17.601942,8.0000003 25.601942,6.0000003 30.601942,21"
         id="path3873"
         inkscape:connector-curvature="0"
         sodipodi:nodetypes="csssc"
         clip-path="url(#clipPath31)"
         transform="translate(-18.346013,1.7418842)" />
      <path
         clip-path="url(#clipPath31)"
         sodipodi:nodetypes="cssssssc"
         inkscape:connector-curvature="0"
         id="path35"
         d="m 19.601942,21 c 1.296264,-3.389305 2.761629,-5.963018 4.255099,-7.864441 5.194211,-6.6130482 10.728399,-5.0939978 10.671004,-1.471504 -0.0777,4.904133 -5.508458,9.262412 -11.801278,7.648999 -2.119104,-0.543316 -8.279953,-3.962985 -6.729045,-7.575923 0.697161,-1.62408 2.602224,-2.9200867 4.944037,-2.6353305 1.086286,0.1320885 2.266548,0.6043115 3.463816,1.5417005 2.160898,1.691852 4.377196,4.898985 6.196367,10.356499"
         style="fill:none;stroke:#000000;stroke-width:4;stroke-linecap:round;stroke-linejoin:round;stroke-miterlimit:4;stroke-dasharray:none;stroke-opacity:1"
         transform="matrix(-1,0,0,1,32.492792,1.7417496)" />
    </g>
    <g
       transform="translate(3.6568129,98.05105)"
       id="g888">
      <path
         style="fill:#000000;stroke:#000000;stroke-width:1.08148038;stroke-linecap:round;stroke-linejoin:round;stroke-miterlimit:0;stroke-dasharray:none;stroke-opacity:1"
         d="m 71.574196,-52.644558 h 9.843519 v 3.093519 h -9.843519 z"
         id="rect860" />
      <g
         id="g880">
        <path
           style="fill:#000000;fill-opacity:1;stroke:#000000;stroke-width:1.7010864;stroke-linecap:round;stroke-linejoin:round;stroke-miterlimit:0;stroke-dasharray:none;stroke-opacity:1"
           d="m 82.594946,-62.645256 a 6.0397091,6.2369566 0 0 1 -6.039709,6.236957 6.0397091,6.2369566 0 0 1 -6.039709,-6.236957 6.0397091,6.2369566 0 0 1 6.039709,-6.236957 6.0397091,6.2369566 0 0 1 6.039709,6.236957 z"
           id="path868" />
        <path
           style="fill:#000000;fill-opacity:1;stroke:#000000;stroke-width:1.51549447;stroke-linecap:round;stroke-linejoin:round;stroke-miterlimit:0;stroke-dasharray:none;stroke-opacity:1"
           d="m 77.143675,-59.773403 a 5.2831254,3.6656508 0 0 1 -5.283125,3.665651 5.2831254,3.6656508 0 0 1 -5.283125,-3.665651 5.2831254,3.6656508 0 0 1 5.283125,-3.665651 5.2831254,3.6656508 0 0 1 5.283125,3.665651 z"
           id="path870" />
        <path
           style="fill:#000000;fill-opacity:1;stroke:#000000;stroke-width:1.51549447;stroke-linecap:round;stroke-linejoin:round;stroke-miterlimit:0;stroke-dasharray:none;stroke-opacity:1"
           d="m 86.247672,-59.817596 a 5.2831254,3.6656508 0 0 1 -5.283126,3.66565 5.2831254,3.6656508 0 0 1 -5.283125,-3.66565 5.2831254,3.6656508 0 0 1 5.283125,-3.665651 5.2831254,3.6656508 0 0 1 5.283126,3.665651 z"
           id="ellipse872" />
        <path
           style="fill:#000000;fill-opacity:1;stroke:#000000;stroke-width:1.31363142;stroke-linecap:round;stroke-linejoin:round;stroke-miterlimit:0;stroke-dasharray:none;stroke-opacity:1"
           d="m 71.670578,-58.520378 h 9.671883 v 4.019081 h -9.671883 z"
           id="rect874" />
      </g>
    </g>
  </g>
</svg>
